<svg xmlns="http://www.w3.org/2000/svg" viewBox="0 0 500 137.2"><defs><style>.cls-1{fill:#fff;}</style></defs><title>Asset 1family</title><g id="Layer_2" data-name="Layer 2"><g id="Layer_1-2" data-name="Layer 1"><path class="cls-1" d="M490.6,44.6v-23h-2.9v23Zm-8.2,0v-23h-2.9v18l-13.3-18h-2.9v23h2.9V26.2l13.4,18.4Zm-22.9,0V42H448.8V21.6h-2.9v23ZM437.1,37h-9.8l4.9-12.4Zm6.1,7.6-9.2-23h-3.6l-9.3,23.1h3.3l2-5.2h11.5l2,5.2h3.3Zm-31.5.4c4.1,0,7.3-2.4,7.3-7.4v-16h-2.9v16c0,2.9-1.8,4.8-4.6,4.8a5.3,5.3,0,0,1-4.3-2.3l-1.5,2.2A7.39,7.39,0,0,0,411.7,45Zm-9.1-.4v-23h-2.9v23Zm-15-11.7h-6V24.1h6a4.4,4.4,0,1,1,0,8.8Zm7.8,11.7-6.2-9.4a6.46,6.46,0,0,0,6-6.7c0-4.3-3-6.9-7.3-6.9h-9.3v23h2.9V35.4h4.6l5.8,9.2Zm-32.7-2.1c-5.2,0-8.5-4-8.5-9.4s3.3-9.4,8.5-9.4,8.5,4,8.5,9.4S367.9,42.5,362.7,42.5Zm0,2.5c6.8,0,11.5-5.1,11.5-11.9s-4.7-11.9-11.5-11.9-11.4,5.1-11.4,11.9S355.9,45,362.7,45Zm-15.9-.4v-23h-4.1l-7.2,17.8-7.2-17.8h-4.1v23h2.9V25.2L335,44.6h1.2L344,25.2V44.6Zm-27.1,0V42H307.5V34h12V31.6h-12V24.2h12.2V21.6H304.6v23Zm-20.5,0v-23h-4.1l-7.2,17.8-7.2-17.8h-4.1v23h2.9V25.2l7.8,19.4h1.2l7.8-19.4V44.6Z"/><path class="cls-1" d="M393.2,68.4h-6.1V59.6h6.1a4.4,4.4,0,1,1,0,8.8M401,80.1l-6.2-9.4a6.46,6.46,0,0,0,6-6.7c0-4.3-3-6.9-7.3-6.9h-9.3V80.2h2.9V71h4.6l5.8,9.2H401Zm-25.9-7.7h-9.8L370.2,60Zm6.2,7.7L372,57h-3.6l-9.3,23.1h3.3l2-5.2h11.5l2,5.2Zm-28.6,0V59.6H360V57H342.5v2.6h7.3V80.1Zm-14,0V57h-2.9V75L322.5,57h-2.9V80.1h2.9V61.7l13.4,18.4Zm-23.6,0V77.6H302.9v-8h12V67h-12V59.6h12.2V57H300V80.1Zm-27.6.4a10.38,10.38,0,0,0,8.8-4.6l-2.4-1.3a7.93,7.93,0,0,1-6.4,3.4c-5,0-8.9-3.9-8.9-9.4s3.8-9.4,8.9-9.4a8,8,0,0,1,6.4,3.4l2.4-1.3a10.3,10.3,0,0,0-8.7-4.6,11.56,11.56,0,0,0-11.9,11.9A11.48,11.48,0,0,0,287.5,80.5Z"/><path class="cls-1" d="M490.5,107.1h-5.8l2.9-8.7Zm9.5,8.5-8.7-23.1h-7.5l-8.7,23.1h6.7l1.1-3.3H492l1.1,3.3Zm-36,.4a10.87,10.87,0,0,0,10.1-6.2l-5.1-2.4a5.63,5.63,0,0,1-4.9,3.4c-3.8,0-6.4-2.9-6.4-6.7a6.39,6.39,0,0,1,6.4-6.7,5.36,5.36,0,0,1,4.9,3.4l5.1-2.5A10.72,10.72,0,0,0,464,92.1c-7.1,0-12.5,4.8-12.5,11.9S456.9,116,464,116Zm-16.7-.4V92.5h-5.9v23.1Zm-11.4,0V92.5h-6v12.7l-9.3-12.7h-6.1v23.1h5.9V102.3l9.7,13.3Zm-26.2,0v-5.2h-11v-3.9h10.7v-5.2H398.7V97.7h11V92.5H392.8v23.1Zm-30.3-12.9h-4.7V97.8h4.7c1.6,0,2.9.9,2.9,2.5A2.63,2.63,0,0,1,379.4,102.7Zm9,12.9-4.7-8.5a7,7,0,0,0,4.6-6.9c0-4.3-2.9-7.7-8-7.7H368.8v23.1h5.9v-7.7h3l3.9,7.7Zm-32.5-5.2h-6v-3.9h6c1.5,0,2.3.8,2.3,1.9C358.2,109.7,357.3,110.4,355.9,110.4Zm-.2-9.1h-5.8V97.7h5.8a1.79,1.79,0,0,1,2,1.8C357.7,100.7,356.9,101.3,355.7,101.3Zm1.7,14.3c4.5,0,6.8-2.9,6.8-6.3a5.39,5.39,0,0,0-4.4-5.6,5.1,5.1,0,0,0,3.9-5.3c0-2.9-2.1-5.9-6.7-5.9H343.9v23.1Zm-18.2,0v-5.2h-11v-3.9H339v-5.2H328.3V97.7h11V92.5H322.4v23.1Zm-30.4-12.9h-4.7V97.8h4.7c1.6,0,2.9.9,2.9,2.5S310.4,102.7,308.8,102.7Zm9.1,12.9-4.7-8.5a7,7,0,0,0,4.6-6.9c0-4.3-2.9-7.7-8-7.7H298.3v23.1h5.9v-7.7h3l3.9,7.7Zm-33.3.4c6.2,0,9.6-3.1,9.6-7.7,0-8.6-13-6.4-13-9.3,0-1,.8-1.6,2.5-1.6a10.59,10.59,0,0,1,6.7,2.4l3.2-4.5a14.27,14.27,0,0,0-9.4-3.2c-5.9,0-9.2,3.5-9.2,7.3,0,8.9,13,6.4,13,9.4,0,1.1-1.2,1.8-3.2,1.8a10.72,10.72,0,0,1-7.4-3l-3.1,4.6C276.6,114.5,279.9,116,284.6,116Z"/><path class="cls-1" d="M4.2,92.2a4.17,4.17,0,0,1,4,4.1H9.4l5,13.4v23.9H31.5V97.4l5-13.4h1.2a4.1,4.1,0,1,1,8.2,0h1.2l5,13.4v36.2H69.4V85.1l5-13.4h1.2a4.1,4.1,0,1,1,8.2,0H85l5,13.4v48.5h17.3V72.9l5-13.4h1.2a4.1,4.1,0,1,1,8.2,0h1.2l5,13.4v60.7h17.3v-73l5-13.4h1.2a4.12,4.12,0,0,1,4.1-4.1,4.19,4.19,0,0,1,4.1,4.1h1.2l5,13.4v73h17.3V48.3l5-13.4h1.2a4.1,4.1,0,1,1,8.2,0h1.2l5,13.4v85.3h18V3.6H4.2Zm222.6,45H0V0H226.8Z"/></g></g></svg>